<svg width="36" height="31" viewBox="0 0 36 31" fill="none" xmlns="http://www.w3.org/2000/svg">
<path d="M2.84759 10.5067C4.8869 4.55559 10.1594 0.637731 16 0.0710827C7.16344 0.0710827 0 6.93959 0 15.5C0 24.0604 7.16344 30.925 16 30.925C14.7883 30.8192 13.5705 30.566 12.3689 30.1542C4.33537 27.4013 0.0725331 18.6048 2.84759 10.5067Z" fill="#B38DC8"/>
<path d="M4.70733 16.463C5.42859 19.4623 7.65345 23.9013 12.3301 23.3349C17.8432 22.6673 19.6875 19.932 20.3081 19.0116C20.4217 18.8431 20.4943 18.7354 20.5408 18.7124C20.5827 18.6917 20.6562 18.6281 20.7609 18.5376C21.4091 17.9773 23.2537 16.3826 26.2066 17.503C27.0811 17.8348 27.7434 18.2168 28.3328 18.5567C29.5523 19.2602 30.4598 19.7835 32.2898 19.3099C32.38 18.9613 32.4577 18.6119 32.523 18.2624C31.1091 17.9102 29.4719 16.8532 28.1494 14.3876C26.5049 12.9839 22.3843 10.9248 19.0577 13.9189C17.9732 14.895 17.1497 15.7548 16.4391 16.4966C14.425 18.5994 13.3179 19.7552 9.74638 19.9288C6.58536 20.0825 5.1853 18.058 4.70733 16.463Z" fill="#B38DC8"/>
<path d="M16.4353 10.6255C20.2224 6.57935 23.8289 6.56323 25.1587 7.06094C19.8424 3.37773 17.18 5.00687 15.8242 5.8365C15.7112 5.90565 15.6072 5.96925 15.5116 6.02376C14.9407 6.34914 14.3384 7.38175 13.6602 8.54448C12.862 9.91313 11.9586 11.4621 10.8774 12.25C9.27754 13.4159 6.241 12.8879 4.9227 12.4781C9.13805 17.3256 11.7014 15.6833 16.4353 10.6255Z" fill="#B38DC8"/>
<path d="M31.1765 11.3918C30.7133 11.5272 29.575 11.3219 28.7271 9.41808C27.6671 7.03826 24.0154 8.93783 24.3857 9.31678C24.5353 9.46991 24.6869 9.43851 24.888 9.39686C25.1846 9.33543 25.5889 9.2517 26.2532 9.70469C27.2896 10.4113 27.4259 10.5917 28.0626 11.4344C28.1108 11.4982 28.1619 11.5659 28.2165 11.6378C28.8366 12.4553 30.4482 11.8144 31.1765 11.3918Z" fill="#B38DC8"/>
<path d="M19.6723 26.3551C21.7506 25.2524 24.0089 25.7406 24.8783 26.1225C21.7826 22.2448 19.832 23.5686 16.9597 25.518C16.7476 25.6619 16.5304 25.8093 16.3074 25.9582C13.7132 27.6908 10.3412 26.0984 8.9795 25.0856C14.4079 29.8084 16.4316 28.4593 18.4839 27.0912C18.8713 26.833 19.2597 26.574 19.6723 26.3551Z" fill="#B38DC8"/>
<path d="M28.3225 22.6394C27.9224 22.7123 26.924 22.4878 26.1314 21.0063C25.1406 19.1543 21.8714 20.3027 21.5276 20.9411C21.1838 21.5795 23.1327 21.3651 23.7349 21.0673C24.337 20.7695 25.1427 22.432 25.2505 22.847C25.3584 23.2621 26.9554 24.4396 28.3225 22.6394Z" fill="#B38DC8"/>
<path d="M4.51588 15.4896C4.56054 15.7882 4.62387 16.1159 4.70733 16.463C5.1853 18.058 6.58536 20.0825 9.74638 19.9288C13.3179 19.7552 14.425 18.5994 16.4391 16.4966C17.1497 15.7548 17.9732 14.895 19.0577 13.9189C22.3843 10.9248 26.5049 12.9839 28.1494 14.3876C25.2503 8.98288 19.1166 11.9225 18.3253 12.4075C18.1305 12.5269 17.731 12.9121 17.1952 13.4287C15.5543 15.011 12.6349 17.8259 10.4035 18.0113C8.03543 18.2082 5.49173 16.4122 4.51588 15.4896Z" fill="#F3E9FC"/>
<path d="M15.8334 24.7875C14.4093 26.3161 10.6708 25.6232 8.9795 25.0856C10.3412 26.0984 13.7132 27.6908 16.3074 25.9582C16.5304 25.8093 16.7476 25.6619 16.9597 25.518C19.832 23.5686 21.7826 22.2448 24.8783 26.1225C23.1327 21.3651 17.6134 22.8768 15.8334 24.7875Z" fill="#F3E9FC"/>
<path d="M8.53575 10.6914C6.01312 11.3393 5.07596 12.1525 4.9227 12.4781C6.241 12.8879 9.27754 13.4159 10.8774 12.25C11.9586 11.4621 12.862 9.91313 13.6602 8.54448C14.3384 7.38175 14.9407 6.34914 15.5116 6.02376C15.6072 5.96925 15.7112 5.90565 15.8242 5.8365C17.18 5.00687 19.8424 3.37773 25.1587 7.06094C19.9099 2.2374 15.9951 4.00479 14.6938 5.49143C13.6922 6.95474 11.0584 10.0434 8.53575 10.6914Z" fill="#F3E9FC"/>
<path d="M6.91227 8.49654C7.95926 6.29257 11.4749 1.96848 17.1614 2.30386C15.9469 2.6859 13.0174 4.03471 11.0156 6.37363C9.0138 8.71255 7.44596 8.76345 6.91227 8.49654Z" fill="#F3E9FC"/>
<path d="M32.2898 19.3099C33.044 19.1147 33.955 18.7501 35.1091 18.159C34.5274 18.393 33.5886 18.5279 32.523 18.2624C32.4577 18.6119 32.38 18.9613 32.2898 19.3099Z" fill="#B38DC8"/>
</svg>
